<svg xmlns="http://www.w3.org/2000/svg" viewBox="0 0 143.55 72.67"><defs><style>.cls-1{fill:#898687;}.cls-2{fill:#009fe3;}.cls-3{fill:#484444;}</style></defs><g id="Calque_2" data-name="Calque 2"><g id="Layer_1" data-name="Layer 1"><path class="cls-1" d="M.14,51.2v0a5.62,5.62,0,0,1,5.8-5.62,5.57,5.57,0,0,1,5.77,5.59v0a5.63,5.63,0,0,1-5.8,5.63A5.57,5.57,0,0,1,.14,51.2Zm9.06,0v0a3.3,3.3,0,0,0-3.29-3.42,3.26,3.26,0,0,0-3.27,3.39v0a3.31,3.31,0,0,0,3.3,3.42A3.24,3.24,0,0,0,9.2,51.2Z"/><path class="cls-1" d="M15,55.52v1.09H12.65V45.26H15v4.21a3.06,3.06,0,0,1,2.6-1.35c1.94,0,3.79,1.52,3.79,4.3v0c0,2.79-1.82,4.31-3.79,4.31A3.2,3.2,0,0,1,15,55.52Zm4-3.07v0a2,2,0,1,0-4.06,0v0a2,2,0,1,0,4.06,0Z"/><path class="cls-1" d="M21.87,55.5l1-1.55a4.72,4.72,0,0,0,2.62,1c.69,0,1-.25,1-.62v0c0-.51-.81-.68-1.73-1-1.16-.35-2.48-.89-2.48-2.51v0c0-1.69,1.36-2.64,3-2.64a5.81,5.81,0,0,1,3.11,1l-.9,1.63A4.93,4.93,0,0,0,25.29,50c-.58,0-.87.25-.87.57v0c0,.47.79.69,1.69,1,1.17.39,2.52,1,2.52,2.47v0c0,1.85-1.38,2.69-3.19,2.69A5.83,5.83,0,0,1,21.87,55.5Z"/><path class="cls-1" d="M29.29,52.49v0a4.15,4.15,0,0,1,4.12-4.33c2.79,0,4.06,2.16,4.06,4.52,0,.19,0,.41,0,.62h-5.8a1.94,1.94,0,0,0,2,1.64,2.72,2.72,0,0,0,2-.86l1.35,1.2a4.15,4.15,0,0,1-3.4,1.55A4.16,4.16,0,0,1,29.29,52.49Zm5.88-.7A1.79,1.79,0,0,0,33.41,50c-1,0-1.61.7-1.8,1.78Z"/><path class="cls-1" d="M38.29,48.27h2.37V50a2.56,2.56,0,0,1,2.66-1.83v2.47h-.13c-1.57,0-2.53.95-2.53,2.94v3.08H38.29Z"/><path class="cls-1" d="M43.73,48.27h2.51l1.86,5.58L50,48.27h2.46l-3.28,8.4H47Z"/><path class="cls-1" d="M52,54.21v0c0-1.82,1.39-2.66,3.36-2.66a6,6,0,0,1,2,.34v-.14c0-1-.61-1.52-1.79-1.52a6.12,6.12,0,0,0-2.3.45l-.59-1.8a7.28,7.28,0,0,1,3.23-.67,3.87,3.87,0,0,1,2.82.93,3.64,3.64,0,0,1,.9,2.66v4.84H57.36V55.7a3.17,3.17,0,0,1-2.51,1.06A2.58,2.58,0,0,1,52,54.21Zm5.43-.54v-.42a3.59,3.59,0,0,0-1.51-.31c-1,0-1.63.4-1.63,1.15v0c0,.64.53,1,1.29,1C56.66,55.13,57.41,54.52,57.41,53.67Z"/><path class="cls-1" d="M61.37,54.24v-4h-1v-2h1V46.14h2.37v2.13h2v2h-2v3.56c0,.55.23.81.76.81a2.46,2.46,0,0,0,1.16-.29v1.89a3.41,3.41,0,0,1-1.86.49C62.35,56.75,61.37,56.17,61.37,54.24Z"/><path class="cls-1" d="M66.17,52.49v0a4.37,4.37,0,0,1,4.53-4.33,4.33,4.33,0,0,1,4.49,4.3v0a4.51,4.51,0,0,1-9,0Zm6.69,0v0a2.22,2.22,0,0,0-2.19-2.3,2.14,2.14,0,0,0-2.16,2.27v0a2.22,2.22,0,0,0,2.19,2.31A2.14,2.14,0,0,0,72.86,52.49Z"/><path class="cls-1" d="M76,45.26H78.5v2.09H76Zm.06,3h2.37v8.34H76.07Z"/><path class="cls-1" d="M79.73,48.27h2.36V50a2.56,2.56,0,0,1,2.66-1.83v2.47h-.13c-1.57,0-2.53.95-2.53,2.94v3.08H79.73Z"/><path class="cls-1" d="M85,52.49v0a4.15,4.15,0,0,1,4.12-4.33c2.79,0,4.06,2.16,4.06,4.52,0,.19,0,.41,0,.62h-5.8a1.93,1.93,0,0,0,2,1.64,2.72,2.72,0,0,0,2-.86l1.35,1.2A4.41,4.41,0,0,1,85,52.49Zm5.88-.7A1.79,1.79,0,0,0,89.08,50c-1,0-1.61.7-1.8,1.78Z"/><path class="cls-1" d="M98.36,58.25l.81-1.77a5.44,5.44,0,0,0,2.81.76c1.62,0,2.38-.77,2.38-2.27v-.4a3.25,3.25,0,0,1-2.72,1.35A3.66,3.66,0,0,1,97.94,52v0a3.67,3.67,0,0,1,3.7-3.88,3.38,3.38,0,0,1,2.69,1.24V48.27h2.36v6.45a4.48,4.48,0,0,1-1,3.29,4.94,4.94,0,0,1-3.6,1.11A7.9,7.9,0,0,1,98.36,58.25Zm6-6.21v0a2,2,0,0,0-4.06,0v0a2,2,0,0,0,4.06,0Z"/><path class="cls-1" d="M108,45.26h2.36V56.61H108Z"/><path class="cls-1" d="M111.54,52.49v0a4.51,4.51,0,0,1,9,0v0A4.38,4.38,0,0,1,116,56.79,4.33,4.33,0,0,1,111.54,52.49Zm6.68,0v0a2.21,2.21,0,0,0-2.19-2.3,2.14,2.14,0,0,0-2.16,2.27v0a2.22,2.22,0,0,0,2.19,2.31A2.13,2.13,0,0,0,118.22,52.49Z"/><path class="cls-1" d="M124,55.52v1.09h-2.36V45.26H124v4.21a3.06,3.06,0,0,1,2.6-1.35c1.94,0,3.79,1.52,3.79,4.3v0c0,2.79-1.81,4.31-3.79,4.31A3.2,3.2,0,0,1,124,55.52Zm4-3.07v0a2,2,0,1,0-4.06,0v0a2,2,0,1,0,4.06,0Z"/><path class="cls-1" d="M131,54.21v0c0-1.82,1.39-2.66,3.36-2.66a6,6,0,0,1,2,.34v-.14c0-1-.61-1.52-1.79-1.52a6.12,6.12,0,0,0-2.3.45l-.59-1.8a7.25,7.25,0,0,1,3.23-.67,3.88,3.88,0,0,1,2.82.93,3.64,3.64,0,0,1,.9,2.66v4.84h-2.29V55.7a3.19,3.19,0,0,1-2.52,1.06A2.58,2.58,0,0,1,131,54.21Zm5.43-.54v-.42a3.62,3.62,0,0,0-1.51-.31c-1,0-1.63.4-1.63,1.15v0c0,.64.53,1,1.29,1C135.69,55.13,136.44,54.52,136.44,53.67Z"/><path class="cls-1" d="M139.89,45.26h2.36V56.61h-2.36Z"/><path class="cls-1" d="M0,68.33v0C0,65.51,1.82,64,3.79,64a3.23,3.23,0,0,1,2.6,1.24v-4.1H8.75V72.48H6.39v-1.2a3.06,3.06,0,0,1-2.6,1.35C1.85,72.63,0,71.11,0,68.33Zm6.42,0v0a2.11,2.11,0,0,0-2-2.3,2.12,2.12,0,0,0-2,2.3v0a2.13,2.13,0,0,0,2,2.3A2.12,2.12,0,0,0,6.42,68.33Z"/><path class="cls-1" d="M10.18,69.54V64.15h2.36v4.64c0,1.12.53,1.7,1.43,1.7s1.48-.58,1.48-1.7V64.15h2.36v8.33H15.45V71.3A2.93,2.93,0,0,1,13,72.63C11.22,72.63,10.18,71.45,10.18,69.54Z"/><path class="cls-1" d="M22.84,70.89l1.42-1.69a5,5,0,0,0,3.25,1.32c1,0,1.57-.39,1.57-1v0c0-.6-.37-.91-2.19-1.38-2.19-.56-3.61-1.17-3.61-3.33v0c0-2,1.59-3.28,3.81-3.28a6.31,6.31,0,0,1,4,1.38l-1.24,1.81a5.12,5.12,0,0,0-2.83-1.08c-.92,0-1.4.42-1.4,1v0c0,.72.47,1,2.35,1.43,2.2.58,3.45,1.37,3.45,3.27v0c0,2.16-1.65,3.37-4,3.37A6.91,6.91,0,0,1,22.84,70.89Z"/><path class="cls-1" d="M32.17,70.08v0c0-1.82,1.38-2.65,3.36-2.65a6,6,0,0,1,2,.34V67.6c0-1-.61-1.53-1.79-1.53a6.12,6.12,0,0,0-2.3.45l-.59-1.8a7.35,7.35,0,0,1,3.23-.67,3.8,3.8,0,0,1,2.81.94,3.58,3.58,0,0,1,.91,2.65v4.84H37.55v-.9a3.24,3.24,0,0,1-2.52,1A2.58,2.58,0,0,1,32.17,70.08Zm5.43-.54v-.42a3.66,3.66,0,0,0-1.51-.31c-1,0-1.63.4-1.63,1.15v0c0,.64.52,1,1.29,1C36.85,71,37.6,70.4,37.6,69.54Z"/><path class="cls-1" d="M41,61.13h2.49v2.1H41Zm.06,3h2.37v8.33H41Z"/><path class="cls-1" d="M44.7,64.15h2.36v1.18A2.94,2.94,0,0,1,49.5,64c1.79,0,2.83,1.18,2.83,3.09v5.4H50V67.83c0-1.12-.53-1.69-1.43-1.69s-1.48.57-1.48,1.69v4.65H44.7Z"/><path class="cls-1" d="M54.15,70.12v-4h-1v-2h1V62h2.36v2.13h2v2h-2v3.56c0,.54.23.81.76.81a2.39,2.39,0,0,0,1.17-.3v1.9a3.56,3.56,0,0,1-1.87.48C55.12,72.62,54.15,72,54.15,70.12Z"/><path class="cls-1" d="M59.62,66.52H64.4v2.27H59.62Z"/><path class="cls-1" d="M65.86,61.6h2.4v8.7h5.42v2.18H65.86Z"/><path class="cls-1" d="M74.43,70.08v0c0-1.82,1.38-2.65,3.35-2.65a6,6,0,0,1,2,.34V67.6c0-1-.61-1.53-1.79-1.53a6.12,6.12,0,0,0-2.3.45l-.59-1.8a7.42,7.42,0,0,1,3.23-.67,3.81,3.81,0,0,1,2.82.94,3.61,3.61,0,0,1,.9,2.65v4.84H79.81v-.9a3.24,3.24,0,0,1-2.52,1A2.58,2.58,0,0,1,74.43,70.08Zm5.42-.54v-.42a3.59,3.59,0,0,0-1.51-.31c-1,0-1.63.4-1.63,1.15v0c0,.64.53,1,1.29,1C79.11,71,79.85,70.4,79.85,69.54Z"/><path class="cls-1" d="M83.13,69.54V64.15h2.36v4.64c0,1.12.53,1.7,1.43,1.7s1.48-.58,1.48-1.7V64.15h2.36v8.33H88.4V71.3A2.93,2.93,0,0,1,86,72.63C84.17,72.63,83.13,71.45,83.13,69.54Z"/><path class="cls-1" d="M91.94,64.15H94.3v1.67A2.58,2.58,0,0,1,97,64v2.47h-.12c-1.57,0-2.54,1-2.54,2.94v3.08H91.94Z"/><path class="cls-1" d="M97.18,68.36v0A4.15,4.15,0,0,1,101.3,64c2.78,0,4.06,2.16,4.06,4.52,0,.19,0,.41,0,.63h-5.8a1.93,1.93,0,0,0,2,1.63,2.7,2.7,0,0,0,2-.86l1.36,1.2a4.4,4.4,0,0,1-7.76-2.75Zm5.88-.7a1.79,1.79,0,0,0-1.76-1.77,1.85,1.85,0,0,0-1.8,1.77Z"/><path class="cls-1" d="M106.49,64.15h2.36v1.18A3,3,0,0,1,111.29,64c1.79,0,2.83,1.18,2.83,3.09v5.4h-2.36V67.83c0-1.12-.53-1.69-1.43-1.69s-1.48.57-1.48,1.69v4.65h-2.36Z"/><path class="cls-1" d="M115.94,70.12v-4h-1v-2h1V62h2.36v2.13h2v2h-2v3.56c0,.54.23.81.76.81a2.37,2.37,0,0,0,1.17-.3v1.9a3.54,3.54,0,0,1-1.87.48C116.92,72.62,115.94,72,115.94,70.12Z"/><path class="cls-2" d="M.1,18.56v-.1C.1,8.31,8.11,0,19.12,0S38,8.21,38,18.36v.1c0,10.15-8,18.46-19,18.46S.1,28.71.1,18.56Zm29.73,0v-.1c0-6.12-4.49-11.22-10.81-11.22s-10.71,5-10.71,11.12v.1c0,6.12,4.49,11.22,10.81,11.22S29.83,24.68,29.83,18.56Z"/><path class="cls-3" d="M40.34,18.91v-.1A18,18,0,0,1,58.69.71c6.3,0,10.1,1.7,13.75,4.8l-4.85,5.85c-2.7-2.25-5.1-3.55-9.15-3.55-5.6,0-10,5-10,10.9v.1c0,6.4,4.4,11.1,10.6,11.1a12.29,12.29,0,0,0,7.25-2.1v-5H58.49V16.16h15.2v15.2a22.72,22.72,0,0,1-14.95,5.55C47.84,36.91,40.34,29.26,40.34,18.91Z"/><path class="cls-3" d="M75.69,31.21l4.55-5.45C83.39,28.36,86.69,30,90.69,30c3.15,0,5-1.25,5-3.3v-.1c0-1.95-1.2-2.95-7-4.45-7-1.8-11.6-3.75-11.6-10.7v-.1C77.09,5,82.19.81,89.34.81a20.26,20.26,0,0,1,13,4.45l-4,5.8c-3.1-2.15-6.15-3.45-9.1-3.45s-4.5,1.35-4.5,3.05v.1c0,2.3,1.5,3.05,7.55,4.6,7.1,1.85,11.1,4.4,11.1,10.5V26c0,6.95-5.3,10.85-12.85,10.85A22.27,22.27,0,0,1,75.69,31.21Z"/><path class="cls-3" d="M107.09,1.31h7.7v28h17.45v7H107.09Z"/><path class="cls-1" d="M139.5,30.84h0a4,4,0,0,1-4.09-4.08,4,4,0,0,1,1.34-3.13l1.2,1.13a2.66,2.66,0,0,0-1,2A2.35,2.35,0,0,0,139.45,29h0A2.36,2.36,0,0,0,142,26.7a2.71,2.71,0,0,0-1-2l1.06-1.08a4,4,0,0,1,1.47,3.2A4,4,0,0,1,139.5,30.84Z"/><path class="cls-1" d="M141.12,22.75h0c-1.69,0-2.52-1.31-2.52-3.23a6.61,6.61,0,0,1,.33-2.1h-.19c-1.12,0-1.71.68-1.71,1.94a5.38,5.38,0,0,0,.49,2.24l-1.41.47a6.74,6.74,0,0,1-.64-2.95,3.47,3.47,0,0,1,.88-2.59,3.23,3.23,0,0,1,2.41-.85h4.64v1.75h-1A3.21,3.21,0,0,1,143.54,20,2.5,2.5,0,0,1,141.12,22.75Zm-.56-5.36H140a5.17,5.17,0,0,0-.31,1.78c0,1.15.49,1.84,1.31,1.84h0c.75,0,1.18-.67,1.18-1.53C142.23,18.29,141.55,17.39,140.56,17.39Z"/><path class="cls-1" d="M139.5,36.22h0a2.08,2.08,0,0,1,0-4.15h0a2,2,0,0,1,2,2.09A2,2,0,0,1,139.5,36.22Zm0-2.87h0a.82.82,0,0,0-.85.81.78.78,0,0,0,.84.78h0a.81.81,0,0,0,.85-.8A.79.79,0,0,0,139.5,33.35Z"/></g></g></svg>